<svg width="18" height="26" viewBox="0 0 18 26" fill="none" xmlns="http://www.w3.org/2000/svg">
<path d="M4.81702 12.0532H6.57088V19.7248C6.57088 19.8763 6.68639 19.999 6.82895 19.999H9.80268C9.94523 19.999 10.0607 19.8763 10.0607 19.7248V12.0894H12.0769C12.208 12.0894 12.3183 11.9848 12.3333 11.8465L12.6395 9.02218C12.6479 8.94447 12.6248 8.86666 12.5758 8.80836C12.5269 8.75001 12.4568 8.71662 12.3832 8.71662H10.0608V6.9462C10.0608 6.41251 10.3313 6.14188 10.8648 6.14188C10.9408 6.14188 12.3832 6.14188 12.3832 6.14188C12.5258 6.14188 12.6413 6.0191 12.6413 5.86769V3.27525C12.6413 3.12378 12.5258 3.00105 12.3832 3.00105H10.2906C10.2758 3.00028 10.243 2.99902 10.1947 2.99902C9.83163 2.99902 8.56954 3.07476 7.57259 4.04924C6.46797 5.12912 6.62151 6.42211 6.65821 6.64629V8.71656H4.81702C4.67447 8.71656 4.55896 8.83929 4.55896 8.99076V11.779C4.55896 11.9304 4.67447 12.0532 4.81702 12.0532Z" fill="#012641"/>
</svg>
