<svg width="18" height="26" viewBox="0 0 18 26" fill="none" xmlns="http://www.w3.org/2000/svg">
<path d="M9.21713 7.24326C9.7515 7.24326 10.2469 7.34346 10.7034 7.54385C11.1709 7.74424 11.5801 8.01978 11.9307 8.37046C12.2814 8.72114 12.557 9.13027 12.7574 9.59785C12.9578 10.0543 13.0579 10.5497 13.0579 11.0841C13.0579 11.6185 12.9578 12.1194 12.7574 12.587C12.557 13.0435 12.2814 13.447 11.9307 13.7977C11.5801 14.1484 11.1709 14.4239 10.7034 14.6243C10.2469 14.8247 9.7515 14.9249 9.21713 14.9249C8.68275 14.9249 8.18178 14.8247 7.7142 14.6243C7.24662 14.4239 6.84027 14.1484 6.49515 13.7977C6.15004 13.447 5.87728 13.0435 5.67689 12.587C5.4765 12.1194 5.37631 11.6185 5.37631 11.0841C5.37631 10.5497 5.4765 10.0543 5.67689 9.59785C5.87728 9.13027 6.15004 8.72114 6.49515 8.37046C6.84027 8.01978 7.24662 7.74424 7.7142 7.54385C8.18178 7.34346 8.68275 7.24326 9.21713 7.24326ZM9.21713 13.589C9.90736 13.589 10.4918 13.3468 10.9705 12.8625C11.4493 12.3783 11.6886 11.7854 11.6886 11.0841C11.6886 10.3938 11.4493 9.80937 10.9705 9.33066C10.4918 8.85195 9.90736 8.6126 9.21713 8.6126C8.51576 8.6126 7.92294 8.85195 7.43866 9.33066C6.95438 9.80937 6.71224 10.3938 6.71224 11.0841C6.71224 11.7854 6.95995 12.3783 7.45536 12.8625C7.95077 13.3468 8.53802 13.589 9.21713 13.589ZM14.0933 7.10967C14.0933 6.85361 14.007 6.63931 13.8345 6.46675C13.6619 6.29419 13.4476 6.20791 13.1915 6.20791C12.9466 6.20791 12.7351 6.29419 12.557 6.46675C12.3788 6.63931 12.2898 6.85361 12.2898 7.10967C12.2898 7.35459 12.3788 7.56611 12.557 7.74424C12.7351 7.92236 12.9466 8.01143 13.1915 8.01143C13.4476 8.01143 13.6619 7.92236 13.8345 7.74424C14.007 7.56611 14.0933 7.35459 14.0933 7.10967ZM16.6316 8.01143C16.6538 8.31201 16.6705 8.74619 16.6817 9.31396C16.6817 9.88174 16.6817 10.4746 16.6817 11.0924C16.6817 11.7103 16.6817 12.3031 16.6817 12.8709C16.6705 13.4387 16.6538 13.8784 16.6316 14.1901C16.5982 14.7913 16.498 15.3507 16.331 15.8684C16.164 16.3861 15.8634 16.8731 15.4292 17.3296C14.9951 17.7638 14.5136 18.0644 13.9848 18.2313C13.4559 18.3983 12.891 18.4985 12.2898 18.5319C11.9892 18.5431 11.555 18.5542 10.9872 18.5653C10.4195 18.5765 9.82665 18.582 9.20878 18.582C8.59091 18.582 7.99808 18.5765 7.43031 18.5653C6.86254 18.5542 6.42279 18.5431 6.11107 18.5319C5.5099 18.4985 4.95048 18.3983 4.4328 18.2313C3.91512 18.0644 3.42806 17.7638 2.97162 17.3296C2.53744 16.8731 2.23685 16.3861 2.06986 15.8684C1.90287 15.3507 1.80267 14.7913 1.76927 14.1901C1.75814 13.8784 1.74701 13.4387 1.73588 12.8709C1.72474 12.3031 1.71918 11.7103 1.71918 11.0924C1.71918 10.4746 1.72474 9.88174 1.73588 9.31396C1.74701 8.74619 1.75814 8.31201 1.76927 8.01143C1.80267 7.41025 1.90287 6.84526 2.06986 6.31645C2.23685 5.78765 2.53744 5.30615 2.97162 4.87197C3.42806 4.43779 3.91512 4.13721 4.4328 3.97021C4.95048 3.80322 5.5099 3.70303 6.11107 3.66963C6.42279 3.64736 6.86254 3.63066 7.43031 3.61953C7.99808 3.61953 8.59091 3.61953 9.20878 3.61953C9.82665 3.61953 10.4195 3.61953 10.9872 3.61953C11.555 3.63066 11.9892 3.64736 12.2898 3.66963C12.891 3.70303 13.4559 3.80322 13.9848 3.97021C14.5136 4.13721 14.9951 4.43779 15.4292 4.87197C15.8634 5.30615 16.164 5.78765 16.331 6.31645C16.498 6.84526 16.5982 7.41025 16.6316 8.01143ZM15.0285 15.4927C15.1287 15.2478 15.201 14.9305 15.2455 14.5408C15.2901 14.1512 15.3179 13.7476 15.329 13.3301C15.3402 12.9126 15.3457 12.5035 15.3457 12.1027C15.3346 11.6908 15.329 11.3513 15.329 11.0841C15.329 10.8169 15.3346 10.4829 15.3457 10.0821C15.3457 9.68135 15.3402 9.26943 15.329 8.84639C15.3179 8.42334 15.2901 8.01699 15.2455 7.62734C15.201 7.23769 15.1287 6.92041 15.0285 6.67549C14.8949 6.35264 14.7084 6.06597 14.469 5.81548C14.2297 5.56499 13.9486 5.38408 13.6257 5.27275C13.3808 5.17256 13.0635 5.10019 12.6739 5.05566C12.2842 5.01113 11.8779 4.98052 11.4548 4.96382C11.0318 4.94712 10.6199 4.94434 10.2191 4.95547C9.8183 4.9666 9.48431 4.97217 9.21713 4.97217C8.94994 4.97217 8.61039 4.9666 8.19847 4.95547C7.79769 4.94434 7.38578 4.94712 6.96273 4.96382C6.53969 4.98052 6.1389 5.01113 5.76039 5.05566C5.37074 5.10019 5.05345 5.17256 4.80853 5.27275C4.47455 5.40635 4.1851 5.59282 3.94017 5.83218C3.69525 6.07153 3.50599 6.35264 3.3724 6.67549C3.2722 6.92041 3.19984 7.23769 3.15531 7.62734C3.11078 8.01699 3.08295 8.42334 3.07181 8.84639C3.06068 9.26943 3.06068 9.68135 3.07181 10.0821C3.07181 10.4829 3.07181 10.8169 3.07181 11.0841C3.07181 11.3513 3.07181 11.6908 3.07181 12.1027C3.06068 12.5035 3.06068 12.9126 3.07181 13.3301C3.08295 13.7476 3.11078 14.1512 3.15531 14.5408C3.19984 14.9305 3.2722 15.2478 3.3724 15.4927C3.50599 15.8267 3.69525 16.1161 3.94017 16.361C4.1851 16.606 4.47455 16.7952 4.80853 16.9288C5.05345 17.029 5.37074 17.1014 5.76039 17.1459C6.1389 17.1793 6.53969 17.2043 6.96273 17.221C7.38578 17.2377 7.79769 17.2405 8.19847 17.2294C8.61039 17.2294 8.94994 17.2294 9.21713 17.2294C9.48431 17.2294 9.8183 17.2294 10.2191 17.2294C10.6199 17.2405 11.0318 17.2377 11.4548 17.221C11.8779 17.2043 12.2842 17.1793 12.6739 17.1459C13.0635 17.1014 13.3808 17.029 13.6257 16.9288C13.9486 16.7952 14.2352 16.606 14.4857 16.361C14.7362 16.1161 14.9171 15.8267 15.0285 15.4927Z" fill="#012641"/>
</svg>
