<svg width="18" height="26" viewBox="0 0 18 26" fill="none" xmlns="http://www.w3.org/2000/svg">
<g clip-path="url(#clip0_1_287)">
<path d="M15.679 3.08496C15.9907 3.08496 16.2607 3.20185 16.4889 3.43564C16.7171 3.66943 16.8312 3.94775 16.8312 4.27061V17.9807C16.8312 18.3035 16.7171 18.5735 16.4889 18.7906C16.2607 19.0077 15.9907 19.1162 15.679 19.1162H1.90214C1.60155 19.1162 1.34271 19.0077 1.12562 18.7906C0.908533 18.5735 0.799988 18.3035 0.799988 17.9807V4.27061C0.799988 3.94775 0.908533 3.66943 1.12562 3.43564C1.34271 3.20185 1.60155 3.08496 1.90214 3.08496H15.679ZM5.62606 16.8284V9.21357H3.27147V16.8284H5.62606ZM4.45712 8.14482C4.8245 8.14482 5.14178 8.01123 5.40897 7.74404C5.67616 7.47686 5.80975 7.154 5.80975 6.77549C5.80975 6.39697 5.67616 6.07134 5.40897 5.79858C5.14178 5.52583 4.8245 5.38945 4.45712 5.38945C4.05634 5.38945 3.72235 5.52583 3.45516 5.79858C3.18798 6.07134 3.05438 6.39697 3.05438 6.77549C3.05438 7.154 3.18798 7.47686 3.45516 7.74404C3.72235 8.01123 4.05634 8.14482 4.45712 8.14482ZM14.5434 16.8284V12.6536C14.5434 11.6294 14.3653 10.7638 14.0091 10.0569C13.6528 9.34995 12.8735 8.99648 11.6712 8.99648C11.1034 8.99648 10.6275 9.13008 10.2434 9.39727C9.85931 9.66445 9.58378 9.94834 9.41679 10.2489H9.38339V9.21357H7.12899V16.8284H9.50028V13.0711C9.50028 12.5701 9.58099 12.1165 9.74242 11.7101C9.90385 11.3038 10.2963 11.1006 10.9197 11.1006C11.532 11.1006 11.8883 11.3288 11.9885 11.7853C12.0887 12.2417 12.1388 12.6814 12.1388 13.1045V16.8284H14.5434Z" fill="#012641"/>
</g>
<defs>
<clipPath id="clip0_1_287">
<rect width="17.1" height="17.1" fill="white" transform="matrix(1 0 0 -1 0.799988 19.1997)"/>
</clipPath>
</defs>
</svg>
