<svg width="10" height="11" viewBox="0 0 10 11" fill="none" xmlns="http://www.w3.org/2000/svg">
<g clip-path="url(#clip0_1_306)">
<path d="M2.84238 10.2998C2.73281 10.2998 2.62807 10.2805 2.52817 10.2418C2.42827 10.2031 2.34287 10.1483 2.27197 10.0774C2.10439 9.92275 2.0206 9.73262 2.0206 9.50703C2.0206 9.28145 2.10439 9.09453 2.27197 8.94629L5.71376 5.47549L2.27197 2.03369C2.10439 1.879 2.0206 1.68887 2.0206 1.46328C2.0206 1.23769 2.10439 1.05078 2.27197 0.902538C2.42021 0.734961 2.60712 0.651172 2.83271 0.651172C3.05829 0.651172 3.24843 0.734961 3.40312 0.902538L7.42499 4.92441C7.58613 5.07266 7.66669 5.25957 7.66669 5.48516C7.66669 5.71074 7.58613 5.90088 7.42499 6.05557L3.40312 10.0774C3.32578 10.1483 3.23876 10.2031 3.14208 10.2418C3.0454 10.2805 2.9455 10.2998 2.84238 10.2998Z" fill="#012641"/>
</g>
<defs>
<clipPath id="clip0_1_306">
<rect width="9.9" height="9.9" fill="white" transform="matrix(1 0 0 -1 0 10.2998)"/>
</clipPath>
</defs>
</svg>
