<svg width="17" height="17" viewBox="0 0 17 17" fill="none" xmlns="http://www.w3.org/2000/svg">
<g clip-path="url(#clip0_1_349)">
<path d="M15.2601 1.1517C15.4077 1.25717 15.5132 1.38901 15.5765 1.54721C15.6397 1.70542 15.6608 1.87417 15.6397 2.05346L13.7888 14.0136C13.7782 14.1613 13.7308 14.2905 13.6464 14.4012C13.562 14.512 13.4565 14.6042 13.33 14.6781C13.214 14.7519 13.0848 14.7941 12.9424 14.8046C12.8 14.8152 12.6602 14.7941 12.5231 14.7414L8.90029 13.2068L7.7454 15.3742C7.68212 15.5113 7.57402 15.6088 7.42109 15.6668C7.26816 15.7249 7.11786 15.738 6.97021 15.7064C6.812 15.6642 6.68808 15.5798 6.59843 15.4533C6.50878 15.3267 6.46396 15.1843 6.46396 15.0261V12.2576C6.46396 12.1837 6.47187 12.1125 6.48769 12.044C6.50351 11.9754 6.54306 11.9148 6.60634 11.8621L11.3524 5.7396C11.3735 5.63413 11.3366 5.54712 11.2417 5.47856C11.1468 5.41001 11.0571 5.41792 10.9727 5.50229L4.89775 10.9919C4.77118 11.108 4.62089 11.1791 4.44687 11.2055C4.27284 11.2319 4.10146 11.2082 3.93271 11.1343L1.48056 10.1376C1.32236 10.0638 1.19316 9.95835 1.09296 9.82124C0.992766 9.68413 0.942668 9.52065 0.942668 9.33081C0.921575 9.15151 0.953215 8.98803 1.03759 8.84038C1.12197 8.69272 1.24325 8.57671 1.40146 8.49233L14.2792 1.13589C14.4268 1.04096 14.5903 0.996139 14.7696 1.00141C14.9489 1.00669 15.1124 1.05678 15.2601 1.1517Z" fill="white"/>
</g>
<defs>
<clipPath id="clip0_1_349">
<rect width="16.2" height="16.2" fill="white" transform="matrix(1 0 0 -1 0.199097 16.4502)"/>
</clipPath>
</defs>
</svg>
