<svg width="18" height="26" viewBox="0 0 18 26" fill="none" xmlns="http://www.w3.org/2000/svg">
<g clip-path="url(#clip0_1_295)">
<path d="M16.0298 7.02598C16.0298 7.11504 16.0298 7.19575 16.0298 7.26812C16.0298 7.34048 16.0298 7.41562 16.0298 7.49355C16.0298 8.6625 15.8127 9.83701 15.3785 11.0171C14.9443 12.1972 14.307 13.2631 13.4664 14.215C12.6259 15.1668 11.5878 15.9434 10.352 16.5445C9.1163 17.1457 7.6913 17.4463 6.07704 17.4463C5.57606 17.4463 5.08622 17.4129 4.60751 17.3461C4.1288 17.2793 3.664 17.1791 3.21312 17.0455C2.76224 16.9119 2.32528 16.7449 1.90223 16.5445C1.49032 16.3553 1.08954 16.1326 0.69989 15.8766C0.833484 15.8988 0.967078 15.9155 1.10067 15.9267C1.23427 15.9378 1.37899 15.9434 1.53485 15.9434C2.34755 15.9434 3.12406 15.8098 3.86439 15.5426C4.60472 15.2754 5.27548 14.908 5.87665 14.4404C5.10848 14.4293 4.4266 14.1955 3.83099 13.7391C3.23539 13.2826 2.82626 12.7037 2.6036 12.0023C2.71493 12.0246 2.82347 12.0413 2.92924 12.0524C3.035 12.0636 3.14911 12.0691 3.27157 12.0691C3.4163 12.0691 3.56937 12.0552 3.7308 12.0274C3.89222 11.9996 4.03973 11.9689 4.17333 11.9355C3.37176 11.7686 2.7038 11.3678 2.16942 10.7332C1.63505 10.0986 1.36786 9.35273 1.36786 8.49551V8.46211C1.60165 8.5957 1.85492 8.69868 2.12767 8.77104C2.40043 8.84341 2.68153 8.88516 2.97098 8.89629C2.49227 8.58457 2.11097 8.17266 1.82709 7.66055C1.5432 7.14844 1.40126 6.5918 1.40126 5.99062C1.40126 5.65664 1.44022 5.34214 1.51815 5.04712C1.59608 4.7521 1.71298 4.47656 1.86884 4.22051C2.30301 4.75488 2.78729 5.23916 3.32167 5.67334C3.85604 6.09639 4.43217 6.46655 5.05004 6.78384C5.66791 7.10112 6.31639 7.35996 6.99549 7.56035C7.68573 7.74961 8.39266 7.86094 9.1163 7.89434C9.0829 7.76074 9.05785 7.62715 9.04115 7.49355C9.02445 7.35996 9.0161 7.22637 9.0161 7.09277C9.0161 6.61406 9.11073 6.16318 9.29999 5.74014C9.47811 5.30596 9.72582 4.93022 10.0431 4.61294C10.3604 4.29565 10.7306 4.04795 11.1536 3.86982C11.5878 3.68057 12.0442 3.58594 12.5229 3.58594C13.0239 3.58594 13.4943 3.68335 13.934 3.87817C14.3738 4.073 14.7606 4.34297 15.0946 4.68809C15.4843 4.61016 15.8656 4.49604 16.2385 4.34575C16.6115 4.19546 16.9649 4.02012 17.2989 3.81973C17.1653 4.24277 16.9677 4.61851 16.7061 4.94692C16.4445 5.27534 16.13 5.54531 15.7626 5.75684C16.1188 5.72344 16.4667 5.65942 16.8063 5.56479C17.1458 5.47017 17.4659 5.35605 17.7665 5.22246C17.5327 5.57871 17.2683 5.90713 16.9733 6.20772C16.6783 6.5083 16.3638 6.78105 16.0298 7.02598Z" fill="#012641"/>
</g>
<defs>
<clipPath id="clip0_1_295">
<rect width="17.1" height="17.1" fill="white" transform="matrix(1 0 0 -1 0.699951 19.1997)"/>
</clipPath>
</defs>
</svg>
